<?xml version="1.0" encoding="UTF-8"?>
<svg xmlns="http://www.w3.org/2000/svg" xmlns:xlink="http://www.w3.org/1999/xlink" viewBox="0 0 100 100" width="100px" height="100px">
<g id="surface47327216">
<path style=" stroke:none;fill-rule:nonzero;fill:rgb(100%,100%,100%);fill-opacity:1;" d="M 50 6 C 36.726562 6 26 16.726562 26 30 L 26 40 L 18 40 C 14.601562 40 12 42.601562 12 46 L 12 94 C 12 97.398438 14.601562 100 18 100 L 82 100 C 85.398438 100 88 97.398438 88 94 L 88 46 C 88 42.601562 85.398438 40 82 40 L 74 40 L 74 30 C 74 16.726562 63.273438 6 50 6 Z M 50 10 C 61.132812 10 70 18.867188 70 30 L 70 40 L 30 40 L 30 30 C 30 18.867188 38.867188 10 50 10 Z M 50 60 C 53.398438 60 56 62.601562 56 66 C 56 67.796875 55.203125 69.375 54 70.375 L 54 76 C 54 78.203125 52.203125 80 50 80 C 47.796875 80 46 78.203125 46 76 L 46 70.375 C 44.796875 69.375 44 67.796875 44 66 C 44 62.601562 46.601562 60 50 60 Z M 50 60 "/>
</g>
</svg>
